# xmcd
#
# Track frame offsets:
#	150
#	18593
#	36701
#	44317
#	65846
#	86742
#	105928
#	125360
#	142550
#	167494
#	184215
#	194611
#	206185
#	227989
#	249421
#
# Disc length: 3598 seconds
#
# Revision: 2
# Processed by: cddbd v1.5.2PL0 Copyright (c) Steve Scherf et al.
# Submitted via: EZCDAudioConverter 2.0.5.1
#
DISCID=d70e0c0f
DTITLE=Raiz Coral - Vencedor
DYEAR=2010
DGENRE=Gospel
TTITLE0=Mais
TTITLE1=Deus é Fiel
TTITLE2=Ambientalização
TTITLE3=Lugar secreto
TTITLE4=Perfume
TTITLE5=Libertador
TTITLE6=Há Poder
TTITLE7=Você Estava ali
TTITLE8=Vencedor
TTITLE9=Eu Ando Com Cristo
TTITLE10=Gana Yesu
TTITLE11=Eu Avistei
TTITLE12=O Cordeiro
TTITLE13=Senhor tu És
TTITLE14=Enquanto Eu Viver
EXTD=
EXTT0=
EXTT1=
EXTT2=
EXTT3=
EXTT4=
EXTT5=
EXTT6=
EXTT7=
EXTT8=
EXTT9=
EXTT10=
EXTT11=
EXTT12=
EXTT13=
EXTT14=
PLAYORDER=
